<?xml version="1.0" standalone="no"?>
<!DOCTYPE svg PUBLIC "-//W3C//DTD SVG 20010904//EN"
 "http://www.w3.org/TR/2001/REC-SVG-20010904/DTD/svg10.dtd">
<svg version="1.0" xmlns="http://www.w3.org/2000/svg"
 width="500.000000pt" height="500.000000pt" viewBox="0 0 500.000000 500.000000"
 preserveAspectRatio="xMidYMid meet">

<g transform="translate(0.000000,500.000000) scale(0.100000,-0.100000)"
fill="#000000" stroke="none">
<path d="M0 2500 l0 -2500 2500 0 2500 0 0 2500 0 2500 -2500 0 -2500 0 0
-2500z m3105 2048 c18 -8 29 -8 36 -1 8 8 18 5 34 -13 25 -27 35 -30 35 -10 0
8 7 16 15 20 8 3 15 1 15 -4 0 -6 -4 -10 -9 -10 -5 0 -13 -9 -16 -20 -3 -11
-13 -20 -22 -20 -11 0 -14 -6 -9 -25 4 -14 2 -26 -4 -26 -5 -1 -14 -2 -19 -3
-5 0 -13 -4 -17 -8 -4 -4 -14 -2 -22 5 -13 10 -14 9 -7 -2 6 -11 2 -12 -21 -6
-16 4 -40 9 -54 12 -36 6 -36 10 -1 31 17 10 28 22 25 25 -4 4 -2 12 3 19 6 7
9 21 8 31 -4 20 -3 20 30 5z m140 -58 c3 -5 -1 -10 -9 -10 -9 0 -16 5 -16 10
0 6 4 10 9 10 6 0 13 -4 16 -10z m-1695 -864 c0 -3 -4 -8 -10 -11 -5 -3 -10
-1 -10 4 0 6 5 11 10 11 6 0 10 -2 10 -4z m-660 -180 c0 -3 -4 -8 -10 -11 -5
-3 -10 -1 -10 4 0 6 5 11 10 11 6 0 10 -2 10 -4z m1753 -142 c26 -4 44 -11 41
-16 -4 -6 2 -8 14 -4 12 4 26 1 35 -8 8 -8 34 -17 57 -20 24 -3 47 -11 51 -18
5 -7 12 -13 16 -13 5 0 19 -10 33 -22 13 -13 30 -23 37 -23 7 0 13 -4 13 -10
0 -5 11 -10 25 -10 14 0 25 -5 25 -10 0 -6 13 -18 28 -28 16 -9 27 -23 25 -29
-3 -7 2 -13 11 -13 9 0 16 -5 16 -11 0 -5 4 -8 9 -5 5 4 7 -2 4 -13 -3 -14 2
-20 21 -25 19 -5 28 -15 33 -36 3 -17 9 -30 14 -30 5 0 9 -6 9 -13 0 -7 10
-24 23 -37 12 -14 23 -28 23 -32 1 -5 2 -13 3 -19 0 -5 6 -7 11 -4 6 4 9 3 8
-2 -1 -4 4 -19 12 -33 10 -18 4 -15 -21 12 -22 22 -48 39 -69 43 -20 3 -118 4
-220 1 -102 -3 -196 -5 -210 -4 -14 0 -74 0 -135 0 -60 1 -130 1 -155 1 -25 0
-110 0 -190 -2 -350 -5 -358 -6 -401 -65 -21 -27 -24 -45 -27 -136 -5 -157 13
-187 24 -40 l8 115 6 -108 c6 -105 7 -109 38 -140 31 -31 36 -32 115 -33 45 0
102 -2 127 -3 41 -2 43 -3 20 -13 -14 -6 -50 -11 -80 -13 -30 -1 -73 -3 -95
-5 l-40 -2 48 -8 c27 -5 54 -15 60 -24 29 -38 90 -44 202 -19 81 17 98 33 38
33 -34 1 -36 2 -18 12 15 9 142 12 468 10 l448 -1 34 35 c20 20 38 47 41 60 3
13 10 21 15 18 5 -3 9 3 10 13 1 34 19 -28 21 -73 2 -30 7 -43 18 -43 8 -1
146 -4 305 -9 259 -6 280 -8 195 -16 -52 -4 -189 -11 -305 -15 -115 -4 -216
-10 -222 -14 -7 -5 -13 -29 -14 -55 -1 -124 -2 -126 -15 -108 -13 18 -11 23
-30 -73 -3 -16 -12 -32 -20 -35 -8 -3 -14 -12 -14 -21 0 -8 -4 -15 -9 -15 -5
0 -14 -13 -21 -30 -7 -16 -16 -30 -21 -30 -5 0 -9 -7 -9 -15 0 -17 -10 -32
-50 -70 -14 -14 -21 -25 -17 -25 4 0 -4 -11 -19 -25 -15 -14 -32 -25 -38 -25
-6 0 -18 -9 -26 -20 -8 -11 -18 -20 -23 -20 -5 0 -18 -11 -28 -24 -10 -13 -31
-27 -46 -31 -21 -5 -24 -8 -12 -16 9 -5 9 -9 2 -9 -6 0 -15 5 -18 10 -9 14
-25 12 -22 -2 1 -7 -6 -13 -15 -13 -9 0 -20 -4 -24 -8 -4 -4 -20 -7 -36 -7
-19 0 -28 -5 -28 -16 0 -8 -4 -13 -8 -10 -5 3 -22 -3 -39 -13 -28 -17 -50 -18
-274 -14 -134 3 -248 8 -252 13 -5 4 12 6 37 4 26 -3 46 0 46 6 0 5 -7 7 -15
3 -9 -3 -25 3 -35 12 -16 14 -20 15 -20 4 -1 -10 -5 -8 -16 6 -8 11 -18 19
-22 18 -4 -1 -6 6 -4 15 2 14 0 14 -13 -2 -8 -11 -15 -14 -15 -8 0 7 -7 12
-16 12 -9 0 -12 5 -8 13 5 8 2 8 -9 -2 -10 -8 -17 -9 -17 -3 0 6 -9 13 -19 17
-11 3 -23 15 -26 26 -4 10 -12 19 -20 19 -7 0 -23 11 -36 25 -13 13 -28 25
-32 25 -14 0 -77 63 -77 76 0 7 -7 14 -15 18 -8 3 -15 14 -15 25 0 15 -5 19
-17 14 -12 -5 -15 -2 -11 9 4 9 1 21 -5 27 -6 6 -8 11 -4 11 4 0 2 6 -5 14 -9
10 -15 11 -20 3 -4 -7 -10 7 -14 31 -4 23 -10 42 -15 42 -5 0 -9 9 -9 19 0 11
-5 21 -11 23 -6 2 -11 16 -11 31 0 15 -4 27 -9 27 -5 0 -9 7 -9 15 0 8 -8 15
-17 16 -15 0 -15 2 -3 7 16 7 20 25 8 38 -5 4 -8 22 -8 40 0 18 -5 36 -12 40
-6 4 -115 13 -241 21 -127 7 -232 15 -235 18 -3 3 98 5 224 5 126 0 234 4 241
8 6 4 14 48 18 100 4 50 12 92 17 92 6 0 7 7 4 16 -3 8 1 29 10 46 9 17 14 39
11 49 -3 11 -2 21 3 24 4 2 10 18 14 35 3 18 10 29 16 25 5 -3 10 3 10 14 0
11 11 33 25 49 14 17 25 35 25 40 0 6 8 15 17 21 10 5 15 13 11 16 -8 9 20 39
45 48 9 4 17 16 17 28 0 12 3 20 6 16 4 -3 12 -1 20 6 7 7 20 18 29 25 8 7 13
18 9 23 -3 6 0 9 8 7 7 -2 15 2 18 7 7 19 30 36 39 31 5 -3 12 1 15 10 3 8 10
13 14 10 5 -3 23 8 40 24 21 19 38 27 49 23 12 -5 14 -3 8 7 -6 10 -2 12 19 8
14 -3 26 -1 26 3 0 5 8 9 18 9 14 0 15 2 2 10 -12 8 -12 10 5 11 11 0 29 3 40
5 110 22 302 31 398 18z m625 -560 c4 2 7 -9 7 -25 0 -16 -3 -29 -7 -29 -5 0
-8 6 -8 14 0 7 -2 26 -4 42 -2 16 -1 21 1 11 2 -9 7 -15 11 -13z m-1046 -44
l17 -20 3 22 c4 32 42 31 46 -1 l4 -24 22 28 c16 19 28 26 40 22 15 -6 15 -10
-5 -45 l-23 -39 23 -36 23 -37 -31 0 c-17 0 -31 5 -31 12 0 9 -3 9 -12 0 -7
-7 -22 -12 -35 -12 -19 0 -23 5 -23 33 0 24 -3 28 -10 17 -5 -8 -7 -22 -4 -31
4 -14 -5 -16 -61 -16 -58 0 -65 2 -65 19 0 19 -1 19 -26 -1 -19 -15 -41 -21
-75 -21 l-49 0 0 44 c0 24 3 58 6 75 6 30 9 31 55 31 35 0 53 -5 67 -20 19
-20 19 -20 31 6 11 24 16 26 54 21 25 -4 48 -14 59 -27z m338 -34 c0 -45 -5
-69 -16 -80 -18 -19 -55 -21 -72 -4 -20 20 -14 38 13 38 21 0 25 5 25 30 0 20
-5 30 -15 30 -9 0 -15 9 -15 25 0 23 4 25 40 25 l40 0 0 -64z m158 29 c62 -73
-55 -168 -123 -100 -27 26 -33 71 -12 97 35 44 98 46 135 3z m117 22 c22 -17
11 -41 -16 -34 -28 7 -23 0 11 -18 23 -12 30 -22 30 -45 0 -46 -62 -67 -105
-36 -28 20 -4 48 34 40 24 -6 24 -5 -6 15 -23 14 -33 28 -33 45 0 40 49 59 85
33z m145 -12 c0 -22 -4 -25 -37 -26 -21 -1 -30 -3 -20 -6 19 -5 24 -42 5 -44
-7 -1 1 -4 17 -8 21 -4 31 -13 33 -29 3 -21 0 -22 -52 -22 l-56 0 0 80 0 80
55 0 c52 0 55 -1 55 -25z m120 0 c0 -21 -5 -25 -30 -25 -16 0 -30 -4 -30 -10
0 -5 5 -10 10 -10 6 0 10 -11 10 -25 0 -14 -4 -25 -9 -25 -5 0 -13 -9 -16 -20
-3 -11 -15 -20 -26 -20 -17 0 -19 8 -19 80 l0 80 55 0 c52 0 55 -1 55 -25z
m-13 -241 c-3 -3 -12 -4 -19 -1 -8 3 -5 6 6 6 11 1 17 -2 13 -5z m979 -162 c1
-12 -3 -22 -7 -22 -5 0 -9 -5 -9 -11 0 -7 10 -9 25 -7 14 3 25 1 25 -3 0 -5 7
-9 15 -9 8 0 15 -5 15 -11 0 -7 12 -9 36 -4 34 6 36 5 20 -10 -9 -9 -16 -24
-16 -34 0 -25 -10 -32 -31 -20 -19 10 -28 -4 -11 -15 14 -8 1 -66 -14 -66 -26
0 -14 -18 15 -22 21 -3 28 -1 24 9 -3 9 4 13 21 13 15 0 29 -7 32 -15 9 -23
23 -18 30 10 4 14 13 25 23 24 21 -1 60 -17 44 -18 -7 -1 -13 -12 -13 -26 0
-18 -5 -25 -20 -25 -11 0 -20 -4 -20 -9 0 -15 18 -23 25 -11 11 18 27 11 20
-10 -5 -16 -2 -20 19 -20 14 0 26 -5 26 -12 0 -6 -3 -8 -7 -5 -3 4 -12 -1 -18
-10 -10 -14 -10 -22 3 -43 23 -37 42 -50 74 -50 21 0 28 -5 28 -20 0 -25 -17
-26 -23 -2 -4 13 -5 11 -6 -5 0 -13 5 -23 12 -23 16 0 50 -102 36 -111 -6 -3
-8 -17 -5 -30 8 -34 15 -92 22 -179 3 -41 11 -81 16 -87 8 -10 6 -13 -8 -13
-16 0 -17 -2 -4 -10 13 -8 8 -14 -10 -12 -3 0 -7 -8 -7 -19 -1 -11 2 -17 8
-14 5 4 9 1 9 -5 0 -6 -7 -13 -15 -16 -8 -4 -15 -12 -15 -19 0 -7 -6 -18 -14
-25 -9 -7 -13 -23 -11 -43 3 -24 -10 -60 -52 -144 -30 -62 -59 -113 -63 -113
-3 0 -21 -20 -39 -45 -27 -37 -38 -45 -64 -45 -38 0 -67 -16 -51 -27 23 -16
23 -42 1 -58 -29 -20 -43 -19 -80 7 -29 20 -31 20 -14 2 18 -22 22 -35 10 -33
-23 4 -35 -3 -29 -16 3 -8 1 -15 -5 -15 -6 0 -9 -8 -8 -17 3 -27 -12 -57 -21
-43 -5 8 -13 9 -21 4 -8 -5 -16 -9 -19 -9 -13 -1 -42 -23 -41 -31 0 -5 -9 -12
-20 -16 -10 -4 -19 -3 -19 2 0 11 -32 1 -41 -13 -4 -5 -26 -11 -50 -13 -23 -2
-45 -7 -48 -12 -10 -15 -37 -20 -52 -10 -11 8 -10 9 4 4 9 -3 17 0 17 5 0 7
-9 9 -22 5 -13 -4 -30 -8 -38 -11 -8 -2 -23 -6 -32 -10 -13 -5 -18 -2 -18 9 0
9 -4 17 -10 17 -20 3 -25 4 -37 12 -6 4 -14 3 -18 -3 -3 -5 -14 -10 -23 -10
-13 0 -13 2 4 15 18 14 18 16 2 29 -10 7 -18 19 -18 27 0 12 -2 12 -9 0 -5 -8
-14 -10 -22 -5 -12 7 -12 5 -1 -9 12 -14 11 -16 -8 -12 -41 8 -112 -7 -106
-21 3 -8 2 -13 -2 -12 -4 1 -15 -2 -24 -6 -10 -5 -26 -5 -35 -1 -30 13 -106
12 -145 -1 -29 -10 -38 -10 -39 -1 -1 7 -3 19 -4 27 -1 8 -3 21 -4 28 0 6 -8
12 -16 12 -8 0 -15 4 -15 9 0 5 -8 12 -18 15 -24 8 -22 34 8 77 20 28 20 31 4
17 -20 -17 -21 -17 -37 17 -9 19 -23 35 -32 35 -8 0 -15 5 -15 10 0 6 6 9 13
8 7 -2 13 9 15 25 2 15 6 25 10 23 4 -2 5 15 4 39 -4 40 -1 47 32 76 20 17 36
39 34 48 -1 9 5 32 14 51 9 19 18 55 20 80 3 40 6 45 26 42 17 -2 22 2 22 17
0 12 5 21 10 21 6 0 10 11 10 25 0 14 -4 25 -10 25 -5 0 -10 9 -10 20 0 11 5
20 10 20 6 0 10 6 10 14 0 7 10 16 21 19 20 6 21 7 4 23 -10 11 -15 27 -12 43
3 14 1 35 -4 48 -5 13 -4 25 1 28 6 4 10 15 10 26 0 46 24 54 178 56 112 2
160 7 212 22 177 54 332 225 360 396 8 51 12 92 19 218 1 9 7 17 15 17 8 0 16
7 20 15 3 8 12 12 21 9 8 -4 15 -1 15 6 0 21 25 4 26 -18z m229 -82 c-2 -27
-15 -38 -15 -13 0 16 8 33 15 33 1 0 1 -9 0 -20z m92 -2 c-3 -8 -6 -5 -6 6 -1
11 2 17 5 13 3 -3 4 -12 1 -19z m-1382 -1448 c3 -5 1 -10 -4 -10 -6 0 -11 5
-11 10 0 6 2 10 4 10 3 0 8 -4 11 -10z m625 -194 c0 -2 -7 -7 -16 -10 -8 -3
-12 -2 -9 4 6 10 25 14 25 6z"/>
<path d="M2977 2401 c-25 -9 74 -35 123 -32 44 3 70 22 43 32 -23 10 -143 10
-166 0z"/>
<path d="M2000 2646 c0 -39 18 -48 41 -20 15 18 2 47 -25 52 -12 3 -16 -4 -16
-32z"/>
<path d="M2150 2655 c0 -20 4 -26 18 -23 9 2 17 12 17 23 0 11 -8 21 -17 23
-14 3 -18 -3 -18 -23z"/>
<path d="M2637 2678 c-20 -11 -22 -41 -3 -57 26 -22 63 10 50 43 -8 20 -27 26
-47 14z"/>
<path d="M3985 2240 c-3 -5 1 -10 9 -10 9 0 16 5 16 10 0 6 -4 10 -9 10 -6 0
-13 -4 -16 -10z"/>
<path d="M3897 1533 c12 -2 27 -11 33 -19 7 -8 20 -14 30 -14 10 0 23 -7 30
-15 7 -9 15 -13 18 -11 2 3 14 0 26 -6 20 -11 20 -10 4 9 -21 23 -23 43 -5 43
23 0 -17 20 -41 20 -16 0 -21 -4 -16 -12 6 -10 4 -10 -7 0 -7 6 -31 11 -53 11
-23 -1 -31 -4 -19 -6z"/>
<path d="M3824 1485 c17 -43 15 -48 -9 -20 l-27 30 5 -28 c4 -26 2 -28 -19
-23 -21 6 -24 3 -24 -24 0 -16 4 -30 9 -30 5 0 11 -7 15 -15 4 -11 -1 -14 -19
-13 -14 1 -24 8 -22 15 2 14 -5 15 -38 7 -23 -6 -36 -24 -17 -24 5 0 9 -7 9
-15 0 -8 -9 -15 -19 -15 -10 0 -18 -4 -18 -10 0 -5 -6 -10 -14 -10 -21 0 -31
-21 -15 -31 10 -6 6 -11 -16 -20 -17 -7 -33 -12 -37 -11 -8 2 -12 -14 -9 -30
0 -5 -3 -8 -8 -8 -14 0 -111 -92 -111 -106 0 -12 -36 -27 -59 -24 -7 1 -11 -5
-8 -12 2 -7 9 -12 15 -11 7 2 10 -12 7 -37 -2 -24 0 -38 6 -35 5 4 9 -1 9 -9
0 -19 11 -21 28 -4 9 9 12 1 13 -38 1 -42 2 -45 9 -19 l7 30 8 -40 c5 -22 10
-34 13 -26 3 10 8 7 17 -9 l12 -23 19 29 c10 16 23 32 29 36 6 5 6 11 -3 20
-14 14 -16 48 -2 48 6 0 10 8 10 17 0 27 15 3 29 -45 15 -52 48 -89 64 -73 17
17 27 13 27 -10 l0 -20 29 21 c18 12 32 16 36 10 3 -5 -1 -10 -11 -10 -15 0
-15 -2 0 -25 9 -13 16 -31 16 -40 0 -10 4 -13 13 -8 20 12 40 13 56 0 11 -10
13 -8 7 11 -6 17 -4 21 8 16 11 -4 16 0 16 11 0 10 -5 13 -12 9 -7 -4 -8 -3
-4 5 11 17 29 2 23 -20 -3 -10 3 -25 14 -35 17 -16 19 -16 19 -1 0 20 11 22
28 5 6 -6 14 -9 18 -5 3 3 -6 18 -20 32 -20 20 -22 25 -8 23 9 -2 16 2 15 9
-2 7 4 10 12 6 13 -4 14 -1 5 22 -7 19 -7 32 -1 38 6 6 18 -6 32 -37 23 -46
46 -63 36 -26 -3 11 -1 20 5 20 5 0 6 5 2 12 -5 8 0 9 14 6 12 -4 22 -2 22 3
0 5 -9 9 -19 9 -11 0 -26 6 -33 13 -11 11 -38 26 -58 32 -26 8 -79 35 -85 45
-10 17 1 23 39 22 29 -1 35 3 38 21 3 20 4 20 18 6 14 -15 16 -15 27 0 11 15
14 15 41 -1 37 -22 48 -23 32 -3 -11 13 -8 15 24 11 22 -3 34 -1 31 4 -4 6
-14 10 -23 10 -15 0 -15 2 -2 10 13 8 12 10 -5 11 -11 1 -32 1 -47 0 -16 -1
-28 2 -28 7 0 5 -18 12 -39 16 -26 4 -54 19 -83 46 -23 22 -38 40 -31 40 6 0
15 -5 18 -10 12 -19 27 2 20 29 l-7 26 27 -30 26 -30 -10 28 c-15 39 -5 34 19
-10 11 -21 18 -28 15 -15 -10 35 13 26 32 -13 16 -35 51 -51 39 -19 -5 12 -2
15 11 10 10 -4 14 -4 10 0 -4 4 -2 13 3 19 7 8 -2 24 -32 53 -25 25 -36 42
-27 42 8 0 20 -5 25 -10 7 -7 19 -8 37 -1 15 6 34 8 43 4 12 -4 15 -1 12 13
-3 14 -11 18 -32 16 -35 -4 -93 15 -99 33 -5 11 -1 11 21 -1 34 -17 43 -8 14
15 -23 17 -22 51 0 51 6 0 5 -6 -2 -15 -11 -13 -6 -14 41 -10 63 7 78 15 26
15 -36 0 -50 13 -24 23 8 4 7 6 -3 6 -8 1 -27 -5 -42 -13 -36 -19 -88 -30 -88
-18 0 5 -9 13 -21 18 -18 8 -19 12 -7 21 11 9 20 9 41 -2 16 -8 29 -10 32 -4
9 13 -5 50 -15 44 -5 -3 -16 2 -25 11 -9 9 -24 14 -36 11 -11 -3 -34 -1 -50 3
-25 8 -30 6 -25 -5z m-367 -397 c-3 -7 -5 -2 -5 12 0 14 2 19 5 13 2 -7 2 -19
0 -25z m203 -159 c0 -5 5 -7 10 -4 6 3 10 2 10 -3 0 -14 -26 -33 -33 -25 -11
10 -8 43 3 43 6 0 10 -5 10 -11z m256 -23 c20 -21 17 -28 -6 -16 -11 6 -20 15
-20 20 0 14 9 12 26 -4z m-132 -62 c9 -24 7 -27 -9 -10 -17 17 -19 26 -6 26 5
0 12 -7 15 -16z"/>
<path d="M3245 1410 c-3 -6 1 -13 10 -16 19 -8 30 0 20 15 -8 14 -22 14 -30 1z"/>
<path d="M3390 1100 c0 -5 5 -10 11 -10 5 0 7 5 4 10 -3 6 -8 10 -11 10 -2 0
-4 -4 -4 -10z"/>
<path d="M3360 1041 c0 -7 -4 -10 -9 -6 -5 3 -12 1 -16 -5 -3 -5 1 -10 9 -10
17 0 31 18 22 27 -3 4 -6 1 -6 -6z"/>
<path d="M3582 930 c0 -14 2 -19 5 -12 2 6 2 18 0 25 -3 6 -5 1 -5 -13z"/>
<path d="M3118 853 c7 -3 16 -2 19 1 4 3 -2 6 -13 5 -11 0 -14 -3 -6 -6z"/>
<path d="M3530 835 c0 -8 5 -15 10 -15 6 0 10 7 10 15 0 8 -4 15 -10 15 -5 0
-10 -7 -10 -15z"/>
</g>
</svg>
